<mxfile host="app.diagrams.net" modified="2020-10-07T07:58:13.653Z" agent="5.0 (Windows)" etag="6XRO9SspYdBD8LZlOf5p" version="13.7.7" type="github">
  <diagram id="Qermgrvvync0e190jn2b" name="Page-1">
    <mxGraphModel dx="1422" dy="791" grid="1" gridSize="10" guides="1" tooltips="1" connect="1" arrows="1" fold="1" page="1" pageScale="1" pageWidth="827" pageHeight="1169" math="0" shadow="0">
      <root>
        <mxCell id="0" />
        <mxCell id="1" parent="0" />
        <mxCell id="3jMC8HgMj0h4YBXZREUR-1" value="&lt;div style=&quot;line-height: 120%; font-size: 15px;&quot; align=&quot;left&quot;&gt;Header&lt;/div&gt;" style="rounded=0;whiteSpace=wrap;html=1;fillColor=#ffe6cc;strokeColor=#d79b00;align=left;verticalAlign=top;fontSize=15;" vertex="1" parent="1">
          <mxGeometry width="820" height="50" as="geometry" />
        </mxCell>
        <mxCell id="3jMC8HgMj0h4YBXZREUR-2" value="Nav" style="rounded=0;whiteSpace=wrap;html=1;fillColor=#f8cecc;strokeColor=#b85450;verticalAlign=top;align=left;fontSize=14;" vertex="1" parent="1">
          <mxGeometry y="60" width="820" height="60" as="geometry" />
        </mxCell>
        <mxCell id="3jMC8HgMj0h4YBXZREUR-4" value="Aside" style="rounded=0;whiteSpace=wrap;html=1;fillColor=#f8cecc;strokeColor=#b85450;verticalAlign=top;align=left;" vertex="1" parent="1">
          <mxGeometry y="150" width="140" height="830" as="geometry" />
        </mxCell>
        <mxCell id="3jMC8HgMj0h4YBXZREUR-5" value="&lt;div&gt;nav&lt;br&gt;&lt;/div&gt;&lt;div&gt;HTML/ CSS&lt;/div&gt;" style="rounded=0;whiteSpace=wrap;html=1;align=left;spacing=2;verticalAlign=top;" vertex="1" parent="1">
          <mxGeometry x="10" y="180" width="120" height="80" as="geometry" />
        </mxCell>
        <mxCell id="3jMC8HgMj0h4YBXZREUR-6" value="&lt;div&gt;nav &lt;br&gt;&lt;/div&gt;&lt;div&gt;JavaScript&lt;/div&gt;" style="rounded=0;whiteSpace=wrap;html=1;align=left;verticalAlign=top;" vertex="1" parent="1">
          <mxGeometry x="10" y="280" width="120" height="80" as="geometry" />
        </mxCell>
        <mxCell id="3jMC8HgMj0h4YBXZREUR-7" value="&lt;div&gt;nav&lt;br&gt;&lt;/div&gt;&lt;div&gt;Server Side&lt;/div&gt;" style="rounded=0;whiteSpace=wrap;html=1;align=left;verticalAlign=top;" vertex="1" parent="1">
          <mxGeometry x="10" y="380" width="120" height="80" as="geometry" />
        </mxCell>
        <mxCell id="3jMC8HgMj0h4YBXZREUR-8" value="&lt;h4 class=&quot;w3-margin-top&quot;&gt;nav Programming&lt;/h4&gt;" style="rounded=0;whiteSpace=wrap;html=1;fontStyle=0;align=left;verticalAlign=top;" vertex="1" parent="1">
          <mxGeometry x="10" y="500" width="120" height="80" as="geometry" />
        </mxCell>
        <mxCell id="3jMC8HgMj0h4YBXZREUR-9" value="&lt;div&gt;nav&lt;br&gt;&lt;/div&gt;&lt;div&gt;Web Building&lt;/div&gt;" style="rounded=0;whiteSpace=wrap;html=1;align=left;verticalAlign=top;" vertex="1" parent="1">
          <mxGeometry x="10" y="600" width="120" height="80" as="geometry" />
        </mxCell>
        <mxCell id="3jMC8HgMj0h4YBXZREUR-10" value="&lt;div&gt;nav&lt;br&gt;&lt;/div&gt;&lt;div&gt;XML Tutorials&lt;/div&gt;" style="rounded=0;whiteSpace=wrap;html=1;align=left;verticalAlign=top;" vertex="1" parent="1">
          <mxGeometry x="10" y="690" width="120" height="80" as="geometry" />
        </mxCell>
        <mxCell id="3jMC8HgMj0h4YBXZREUR-11" value="&lt;div&gt;nav&lt;br&gt;&lt;/div&gt;&lt;div&gt;Exercises&lt;/div&gt;" style="rounded=0;whiteSpace=wrap;html=1;align=left;verticalAlign=top;" vertex="1" parent="1">
          <mxGeometry x="10" y="890" width="120" height="80" as="geometry" />
        </mxCell>
        <mxCell id="3jMC8HgMj0h4YBXZREUR-12" value="&lt;div&gt;nav&lt;br&gt;&lt;/div&gt;&lt;div&gt;References&lt;/div&gt;" style="rounded=0;whiteSpace=wrap;html=1;align=left;verticalAlign=top;" vertex="1" parent="1">
          <mxGeometry x="10" y="790" width="120" height="80" as="geometry" />
        </mxCell>
        <mxCell id="3jMC8HgMj0h4YBXZREUR-17" value="&lt;div&gt;Section&lt;/div&gt;&lt;div&gt;HTML&lt;br&gt;&lt;/div&gt;" style="rounded=0;whiteSpace=wrap;html=1;fillColor=#f5f5f5;strokeColor=#666666;fontColor=#333333;verticalAlign=top;align=left;" vertex="1" parent="1">
          <mxGeometry x="160" y="160" width="650" height="190" as="geometry" />
        </mxCell>
        <mxCell id="3jMC8HgMj0h4YBXZREUR-18" value="Aside" style="rounded=0;whiteSpace=wrap;html=1;fillColor=#e1d5e7;strokeColor=#9673a6;align=left;verticalAlign=top;" vertex="1" parent="1">
          <mxGeometry x="170" y="210" width="310" height="130" as="geometry" />
        </mxCell>
        <mxCell id="3jMC8HgMj0h4YBXZREUR-19" value="Article" style="rounded=0;whiteSpace=wrap;html=1;align=left;verticalAlign=top;fillColor=#bac8d3;strokeColor=#23445d;" vertex="1" parent="1">
          <mxGeometry x="490" y="210" width="310" height="130" as="geometry" />
        </mxCell>
        <mxCell id="3jMC8HgMj0h4YBXZREUR-41" value="" style="rounded=0;whiteSpace=wrap;html=1;" vertex="1" parent="1">
          <mxGeometry x="60" y="2460" width="650" height="290" as="geometry" />
        </mxCell>
        <mxCell id="3jMC8HgMj0h4YBXZREUR-42" value="" style="rounded=0;whiteSpace=wrap;html=1;" vertex="1" parent="1">
          <mxGeometry x="70" y="2470" width="310" height="270" as="geometry" />
        </mxCell>
        <mxCell id="3jMC8HgMj0h4YBXZREUR-43" value="" style="rounded=0;whiteSpace=wrap;html=1;" vertex="1" parent="1">
          <mxGeometry x="390" y="2470" width="310" height="270" as="geometry" />
        </mxCell>
        <mxCell id="3jMC8HgMj0h4YBXZREUR-44" value="" style="rounded=0;whiteSpace=wrap;html=1;" vertex="1" parent="1">
          <mxGeometry x="60" y="3120" width="650" height="290" as="geometry" />
        </mxCell>
        <mxCell id="3jMC8HgMj0h4YBXZREUR-45" value="" style="rounded=0;whiteSpace=wrap;html=1;" vertex="1" parent="1">
          <mxGeometry x="70" y="3130" width="310" height="270" as="geometry" />
        </mxCell>
        <mxCell id="3jMC8HgMj0h4YBXZREUR-46" value="" style="rounded=0;whiteSpace=wrap;html=1;" vertex="1" parent="1">
          <mxGeometry x="390" y="3130" width="310" height="270" as="geometry" />
        </mxCell>
        <mxCell id="3jMC8HgMj0h4YBXZREUR-47" value="" style="rounded=0;whiteSpace=wrap;html=1;" vertex="1" parent="1">
          <mxGeometry x="140" y="2220" width="310" height="270" as="geometry" />
        </mxCell>
        <mxCell id="3jMC8HgMj0h4YBXZREUR-48" value="Section Templates" style="rounded=0;whiteSpace=wrap;html=1;align=left;verticalAlign=top;fillColor=#f5f5f5;strokeColor=#666666;fontColor=#333333;" vertex="1" parent="1">
          <mxGeometry x="160" y="1810" width="650" height="240" as="geometry" />
        </mxCell>
        <mxCell id="3jMC8HgMj0h4YBXZREUR-49" value="Article Templates" style="rounded=0;whiteSpace=wrap;html=1;fillColor=#bac8d3;strokeColor=#23445d;align=left;verticalAlign=top;" vertex="1" parent="1">
          <mxGeometry x="200" y="1860" width="580" height="160" as="geometry" />
        </mxCell>
        <mxCell id="3jMC8HgMj0h4YBXZREUR-51" value="Section" style="rounded=0;whiteSpace=wrap;html=1;align=left;verticalAlign=top;fillColor=#f5f5f5;strokeColor=#666666;fontColor=#333333;" vertex="1" parent="1">
          <mxGeometry x="160" y="970" width="650" height="310" as="geometry" />
        </mxCell>
        <mxCell id="3jMC8HgMj0h4YBXZREUR-52" value="&lt;div&gt;Article&lt;/div&gt;&lt;div&gt;JQuery&lt;br&gt;&lt;/div&gt;" style="rounded=0;whiteSpace=wrap;html=1;fillColor=#bac8d3;strokeColor=#23445d;align=left;verticalAlign=top;fontSize=15;" vertex="1" parent="1">
          <mxGeometry x="180" y="1150" width="290" height="120" as="geometry" />
        </mxCell>
        <mxCell id="3jMC8HgMj0h4YBXZREUR-55" value="&lt;div&gt;Section&lt;/div&gt;&lt;div&gt;CSS&lt;br&gt;&lt;/div&gt;" style="rounded=0;whiteSpace=wrap;html=1;fillColor=#f5f5f5;strokeColor=#666666;fontColor=#333333;verticalAlign=top;align=left;" vertex="1" parent="1">
          <mxGeometry x="160" y="360" width="650" height="190" as="geometry" />
        </mxCell>
        <mxCell id="3jMC8HgMj0h4YBXZREUR-56" value="Aside" style="rounded=0;whiteSpace=wrap;html=1;fillColor=#e1d5e7;strokeColor=#9673a6;align=left;verticalAlign=top;" vertex="1" parent="1">
          <mxGeometry x="490" y="410" width="310" height="130" as="geometry" />
        </mxCell>
        <mxCell id="3jMC8HgMj0h4YBXZREUR-57" value="Article" style="rounded=0;whiteSpace=wrap;html=1;align=left;verticalAlign=top;fillColor=#bac8d3;strokeColor=#23445d;" vertex="1" parent="1">
          <mxGeometry x="170" y="410" width="310" height="130" as="geometry" />
        </mxCell>
        <mxCell id="3jMC8HgMj0h4YBXZREUR-58" value="&lt;div&gt;Section&lt;/div&gt;&lt;div&gt;JS&lt;br&gt;&lt;/div&gt;" style="rounded=0;whiteSpace=wrap;html=1;fillColor=#f5f5f5;strokeColor=#666666;fontColor=#333333;verticalAlign=top;align=left;" vertex="1" parent="1">
          <mxGeometry x="160" y="570" width="650" height="190" as="geometry" />
        </mxCell>
        <mxCell id="3jMC8HgMj0h4YBXZREUR-59" value="Aside" style="rounded=0;whiteSpace=wrap;html=1;fillColor=#e1d5e7;strokeColor=#9673a6;align=left;verticalAlign=top;" vertex="1" parent="1">
          <mxGeometry x="170" y="620" width="310" height="130" as="geometry" />
        </mxCell>
        <mxCell id="3jMC8HgMj0h4YBXZREUR-60" value="Article" style="rounded=0;whiteSpace=wrap;html=1;align=left;verticalAlign=top;fillColor=#bac8d3;strokeColor=#23445d;" vertex="1" parent="1">
          <mxGeometry x="490" y="620" width="310" height="130" as="geometry" />
        </mxCell>
        <mxCell id="3jMC8HgMj0h4YBXZREUR-61" value="&lt;div&gt;Section&lt;/div&gt;&lt;div&gt;JS&lt;br&gt;&lt;/div&gt;" style="rounded=0;whiteSpace=wrap;html=1;fillColor=#f5f5f5;strokeColor=#666666;fontColor=#333333;verticalAlign=top;align=left;" vertex="1" parent="1">
          <mxGeometry x="160" y="770" width="650" height="190" as="geometry" />
        </mxCell>
        <mxCell id="3jMC8HgMj0h4YBXZREUR-62" value="Aside" style="rounded=0;whiteSpace=wrap;html=1;fillColor=#e1d5e7;strokeColor=#9673a6;align=left;verticalAlign=top;" vertex="1" parent="1">
          <mxGeometry x="490" y="820" width="310" height="130" as="geometry" />
        </mxCell>
        <mxCell id="3jMC8HgMj0h4YBXZREUR-63" value="Article" style="rounded=0;whiteSpace=wrap;html=1;align=left;verticalAlign=top;fillColor=#bac8d3;strokeColor=#23445d;" vertex="1" parent="1">
          <mxGeometry x="170" y="820" width="310" height="130" as="geometry" />
        </mxCell>
        <mxCell id="3jMC8HgMj0h4YBXZREUR-64" value="&lt;div&gt;Article&lt;/div&gt;&lt;div&gt;Python&lt;br&gt;&lt;/div&gt;" style="rounded=0;whiteSpace=wrap;html=1;fillColor=#bac8d3;strokeColor=#23445d;align=left;verticalAlign=top;fontSize=16;" vertex="1" parent="1">
          <mxGeometry x="180" y="1020" width="290" height="120" as="geometry" />
        </mxCell>
        <mxCell id="3jMC8HgMj0h4YBXZREUR-65" value="&lt;div&gt;Article&lt;/div&gt;&lt;div&gt;Java&lt;br&gt;&lt;/div&gt;" style="rounded=0;whiteSpace=wrap;html=1;fillColor=#bac8d3;strokeColor=#23445d;align=left;verticalAlign=top;fontSize=16;" vertex="1" parent="1">
          <mxGeometry x="490" y="1150" width="290" height="120" as="geometry" />
        </mxCell>
        <mxCell id="3jMC8HgMj0h4YBXZREUR-66" value="&lt;div&gt;Article&lt;/div&gt;&lt;div&gt;PHP&lt;br&gt;&lt;/div&gt;" style="rounded=0;whiteSpace=wrap;html=1;fillColor=#bac8d3;strokeColor=#23445d;align=left;verticalAlign=top;fontSize=16;" vertex="1" parent="1">
          <mxGeometry x="490" y="1020" width="290" height="120" as="geometry" />
        </mxCell>
        <mxCell id="3jMC8HgMj0h4YBXZREUR-67" value="Section" style="rounded=0;whiteSpace=wrap;html=1;align=left;verticalAlign=top;fillColor=#f5f5f5;strokeColor=#666666;fontColor=#333333;" vertex="1" parent="1">
          <mxGeometry x="160" y="1360" width="650" height="220" as="geometry" />
        </mxCell>
        <mxCell id="3jMC8HgMj0h4YBXZREUR-69" value="&lt;div&gt;Article&lt;/div&gt;&lt;div&gt;w3.css&lt;br&gt;&lt;/div&gt;" style="rounded=0;whiteSpace=wrap;html=1;fillColor=#bac8d3;strokeColor=#23445d;align=left;verticalAlign=top;fontSize=16;" vertex="1" parent="1">
          <mxGeometry x="180" y="1410" width="160" height="150" as="geometry" />
        </mxCell>
        <mxCell id="3jMC8HgMj0h4YBXZREUR-72" style="edgeStyle=orthogonalEdgeStyle;rounded=0;orthogonalLoop=1;jettySize=auto;html=1;exitX=0.5;exitY=1;exitDx=0;exitDy=0;fontSize=16;" edge="1" parent="1" source="3jMC8HgMj0h4YBXZREUR-67" target="3jMC8HgMj0h4YBXZREUR-67">
          <mxGeometry relative="1" as="geometry" />
        </mxCell>
        <mxCell id="3jMC8HgMj0h4YBXZREUR-73" value="&lt;div&gt;Article&lt;/div&gt;&lt;div&gt;Color Picker&lt;br&gt;&lt;/div&gt;" style="rounded=0;whiteSpace=wrap;html=1;fillColor=#bac8d3;strokeColor=#23445d;align=left;verticalAlign=top;fontSize=16;" vertex="1" parent="1">
          <mxGeometry x="414" y="1410" width="160" height="150" as="geometry" />
        </mxCell>
        <mxCell id="3jMC8HgMj0h4YBXZREUR-74" value="&lt;div&gt;Article&lt;/div&gt;&lt;div&gt;Bootstrap&lt;br&gt;&lt;/div&gt;" style="rounded=0;whiteSpace=wrap;html=1;fillColor=#bac8d3;strokeColor=#23445d;align=left;verticalAlign=top;fontSize=16;" vertex="1" parent="1">
          <mxGeometry x="620" y="1410" width="160" height="150" as="geometry" />
        </mxCell>
        <mxCell id="3jMC8HgMj0h4YBXZREUR-75" value="&lt;div&gt;Section&lt;/div&gt;&lt;div&gt;Exercices&lt;br&gt;&lt;/div&gt;" style="rounded=0;whiteSpace=wrap;html=1;align=left;verticalAlign=top;fillColor=#f5f5f5;strokeColor=#666666;fontColor=#333333;" vertex="1" parent="1">
          <mxGeometry x="160" y="1600" width="650" height="200" as="geometry" />
        </mxCell>
        <mxCell id="3jMC8HgMj0h4YBXZREUR-77" style="edgeStyle=orthogonalEdgeStyle;rounded=0;orthogonalLoop=1;jettySize=auto;html=1;exitX=0.5;exitY=1;exitDx=0;exitDy=0;fontSize=16;" edge="1" parent="1" source="3jMC8HgMj0h4YBXZREUR-75" target="3jMC8HgMj0h4YBXZREUR-75">
          <mxGeometry relative="1" as="geometry" />
        </mxCell>
        <mxCell id="3jMC8HgMj0h4YBXZREUR-79" value="Nav Exercices" style="rounded=0;whiteSpace=wrap;html=1;fillColor=#f8cecc;strokeColor=#b85450;align=left;verticalAlign=top;fontSize=16;" vertex="1" parent="1">
          <mxGeometry x="180" y="1650" width="610" height="130" as="geometry" />
        </mxCell>
      </root>
    </mxGraphModel>
  </diagram>
</mxfile>
